<svg xmlns="http://www.w3.org/2000/svg" viewBox="0 0 1600 1000" role="img" aria-labelledby="title description">
  <title id="title">Abstract project concept preview</title>
  <desc id="description">A neutral abstract composition of connected cards and geometric shapes.</desc>
  <defs>
    <linearGradient id="background" x1="0" y1="0" x2="1" y2="1">
      <stop offset="0" stop-color="#16231d"/>
      <stop offset="1" stop-color="#33483e"/>
    </linearGradient>
    <linearGradient id="accent" x1="0" y1="0" x2="1" y2="1">
      <stop offset="0" stop-color="#d9f089"/>
      <stop offset="1" stop-color="#88d4bd"/>
    </linearGradient>
  </defs>
  <rect width="1600" height="1000" fill="url(#background)"/>
  <circle cx="1330" cy="160" r="270" fill="#5368bf" opacity=".24"/>
  <circle cx="210" cy="890" r="330" fill="#d9f089" opacity=".13"/>
  <g fill="none" stroke="#f5f0e6" stroke-opacity=".25" stroke-width="3">
    <path d="M310 500h250M760 500h250M1210 500h120"/>
    <path d="M660 390v-130h360M1110 610v150H760"/>
  </g>
  <g>
    <rect x="130" y="350" width="320" height="300" rx="30" fill="#f5f0e6"/>
    <rect x="560" y="260" width="310" height="480" rx="30" fill="url(#accent)"/>
    <rect x="980" y="350" width="360" height="300" rx="30" fill="#f5f0e6"/>
    <circle cx="290" cy="445" r="42" fill="#5368bf"/>
    <circle cx="715" cy="365" r="42" fill="#17221d"/>
    <circle cx="1160" cy="445" r="42" fill="#d36f42"/>
    <g fill="#17221d" opacity=".82">
      <rect x="210" y="525" width="160" height="18" rx="9"/>
      <rect x="210" y="570" width="105" height="12" rx="6" opacity=".5"/>
      <rect x="635" y="455" width="160" height="18" rx="9"/>
      <rect x="635" y="500" width="110" height="12" rx="6" opacity=".5"/>
      <rect x="635" y="545" width="135" height="12" rx="6" opacity=".5"/>
      <rect x="1080" y="525" width="160" height="18" rx="9"/>
      <rect x="1080" y="570" width="110" height="12" rx="6" opacity=".5"/>
    </g>
  </g>
</svg>
